HIERARCHY
ROOT Hips
{
	OFFSET 0.000000 0.000000 0.000000
	CHANNELS 6 Xposition Yposition Zposition Zrotation Yrotation Xrotation 
	JOINT LHipJoint
	{
		OFFSET 0.000000 0.000000 0.000000
		CHANNELS 3 Zrotation Yrotation Xrotation
		JOINT LeftUpLeg
		{
			OFFSET 1.363060 -1.794630 0.839290
			CHANNELS 3 Zrotation Yrotation Xrotation
			JOINT LeftLeg
			{
				OFFSET 2.448110 -6.726130 0.000000
				CHANNELS 3 Zrotation Yrotation Xrotation
				JOINT LeftFoot
				{
					OFFSET 2.562200 -7.039590 0.000000
					CHANNELS 3 Zrotation Yrotation Xrotation
					JOINT LeftToeBase
					{
						OFFSET 0.157640 -0.433110 2.322550
						CHANNELS 3 Zrotation Yrotation Xrotation
						End Site
						{
							OFFSET 0.000000 0.000000 0.000000
						}
					}
				}
			}
		}
	}
	JOINT RHipJoint
	{
		OFFSET 0.000000 0.000000 0.000000
		CHANNELS 3 Zrotation Yrotation Xrotation
		JOINT RightUpLeg
		{
			OFFSET -1.305520 -1.794630 0.839290
			CHANNELS 3 Zrotation Yrotation Xrotation
			JOINT RightLeg
			{
				OFFSET -2.542530 -6.985550 0.000000
				CHANNELS 3 Zrotation Yrotation Xrotation
				JOINT RightFoot
				{
					OFFSET -2.568260 -7.056230 0.000000
					CHANNELS 3 Zrotation Yrotation Xrotation
					JOINT RightToeBase
					{
						OFFSET -0.164730 -0.452590 2.363150
						CHANNELS 3 Zrotation Yrotation Xrotation
						End Site
						{
							OFFSET 0.000000 0.000000 0.000000
						}
					}
				}
			}
		}
	}
	JOINT LowerBack
	{
		OFFSET 0.000000 0.000000 0.000000
		CHANNELS 3 Zrotation Yrotation Xrotation
		JOINT Spine
		{
			OFFSET 0.028270 2.035590 -0.193380
			CHANNELS 3 Zrotation Yrotation Xrotation
			JOINT Spine1
			{
				OFFSET 0.056720 2.048850 -0.042750
				CHANNELS 3 Zrotation Yrotation Xrotation
				JOINT Neck
				{
					OFFSET 0.000000 0.000000 0.000000
					CHANNELS 3 Zrotation Yrotation Xrotation
					JOINT Neck1
					{
						OFFSET -0.054170 1.746240 0.172020
						CHANNELS 3 Zrotation Yrotation Xrotation
						JOINT Head
						{
							OFFSET 0.104070 1.761360 -0.123970
							CHANNELS 3 Zrotation Yrotation Xrotation
							End Site
							{
								OFFSET 0.000000 0.000000 0.000000
							}
						}
					}
				}
				JOINT LeftShoulder
				{
					OFFSET 0.000000 0.000000 0.000000
					CHANNELS 3 Zrotation Yrotation Xrotation
					JOINT LeftArm
					{
						OFFSET 3.362410 1.200890 -0.311210
						CHANNELS 3 Zrotation Yrotation Xrotation
						JOINT LeftForeArm
						{
							OFFSET 4.983000 -0.000000 -0.000000
							CHANNELS 3 Zrotation Yrotation Xrotation
							JOINT LeftHand
							{
								OFFSET 3.483560 -0.000000 -0.000000
								CHANNELS 3 Zrotation Yrotation Xrotation
								JOINT LeftFingerBase
								{
									OFFSET 0.000000 0.000000 0.000000
									CHANNELS 3 Zrotation Yrotation Xrotation
									JOINT LeftHandIndex1
									{
										OFFSET 0.715260 -0.000000 -0.000000
										CHANNELS 3 Zrotation Yrotation Xrotation
										End Site
										{
											OFFSET 0.000000 0.000000 0.000000
										}
									}
								}
								JOINT LThumb
								{
									OFFSET 0.000000 0.000000 0.000000
									CHANNELS 3 Zrotation Yrotation Xrotation
									End Site
									{
										OFFSET 0.000000 0.000000 0.000000
									}
								}
							}
						}
					}
				}
				JOINT RightShoulder
				{
					OFFSET 0.000000 0.000000 0.000000
					CHANNELS 3 Zrotation Yrotation Xrotation
					JOINT RightArm
					{
						OFFSET -3.136600 1.374050 -0.404650
						CHANNELS 3 Zrotation Yrotation Xrotation
						JOINT RightForeArm
						{
							OFFSET -5.241900 -0.000000 -0.000000
							CHANNELS 3 Zrotation Yrotation Xrotation
							JOINT RightHand
							{
								OFFSET -3.444170 -0.000000 -0.000000
								CHANNELS 3 Zrotation Yrotation Xrotation
								JOINT RightFingerBase
								{
									OFFSET 0.000000 0.000000 0.000000
									CHANNELS 3 Zrotation Yrotation Xrotation
									JOINT RightHandIndex1
									{
										OFFSET -0.622530 -0.000000 -0.000000
										CHANNELS 3 Zrotation Yrotation Xrotation
										End Site
										{
											OFFSET 0.000000 0.000000 0.000000
										}
									}
								}
								JOINT RThumb
								{
									OFFSET 0.000000 0.000000 0.000000
									CHANNELS 3 Zrotation Yrotation Xrotation
									End Site
									{
										OFFSET 0.000000 0.000000 0.000000
									}
								}
							}
						}
					}
				}
			}
		}
	}
}
MOTION
Frames: 10
Frame Time: 0.008333
1.276151 15.707037 3.102110 0.480661 26.165452 35.735559 -7.768860 0.165725 1.677975 -15.938480 -8.413249 -75.816236 -2.698697 3.415561 41.990934 -0.051150 -2.364498 -5.182567 0.032999 -0.000000 -26.515099 9.488444 -0.308875 -2.322747 18.305064 2.738660 -36.398658 2.942988 -2.829976 52.780789 -1.102478 7.685978 -34.172519 178.464000 -0.000000 -5.785000 0.657595 0.111626 6.836498 -0.439961 0.297119 -1.597294 -4.830570 0.299738 -0.335678 8.182122 -9.301880 -7.856967 -1.030279 -0.048476 -0.451326 0.000000 0.000000 0.000000 5.962531 12.814857 2.807734 -67.725173 28.692702 16.861637 -0.617527 -78.686217 0.010823 -7.145026 4.497362 -0.279190 0.048088 0.055128 -0.000000 0.000000 0.000000 0.000000 0.000000 0.000000 0.000000 1.608941 -2.420457 -0.410785 67.615197 1.497940 7.878539 179.588799 81.466730 179.999940 -0.178874 1.164804 -0.001776 -0.002267 -0.404197 0.000000 0.000000 0.000000 0.000000 0.000000 0.000000 0.000000 
1.348239 15.666567 3.227530 0.272529 25.297906 35.165317 -7.828195 0.023754 1.556774 -15.293742 -8.133802 -76.031258 -2.359553 3.619145 44.664820 0.114172 -1.680823 -5.959536 0.071000 0.000000 -23.004700 9.669758 -0.365963 -2.456906 18.116821 2.065618 -36.165241 2.773067 -3.013433 54.534105 -0.861067 8.283072 -33.127451 178.181700 0.000000 -3.095200 0.401255 0.118801 6.961064 -0.520924 0.307010 -1.580574 -4.941089 0.314407 -0.362374 8.310383 -9.142386 -7.813122 -1.069538 -0.052213 -0.436518 0.000000 0.000000 0.000000 5.885923 12.806742 2.818525 -68.133650 28.200328 16.286664 -0.627683 -78.512221 0.010937 -7.110763 4.529152 -0.279785 0.047459 0.056421 -0.000000 0.000000 0.000000 0.000000 0.000000 0.000000 0.000000 1.783385 -2.246869 -0.447425 68.684458 1.497396 7.305575 179.615385 82.012271 -179.998688 0.046578 1.266555 0.001409 -0.010695 -0.406746 0.000000 0.000000 0.000000 0.000000 0.000000 0.000000 0.000000 
1.416414 15.628466 3.353377 0.124484 24.418637 34.624851 -7.872126 -0.100441 1.402773 -14.871447 -7.772376 -76.146387 -2.070303 3.811182 47.229454 0.280922 -0.988918 -6.849880 0.092100 0.000000 -20.285900 9.869905 -0.412391 -2.568542 17.807349 1.435654 -35.965729 2.574331 -3.189579 56.250194 -0.614323 8.829038 -31.874564 -2.053900 -0.000000 -0.523200 0.092771 0.117128 7.098646 -0.613231 0.309794 -1.561778 -5.054799 0.322349 -0.393777 8.439006 -8.972302 -7.760329 -1.113522 -0.056367 -0.420075 0.000000 0.000000 0.000000 5.797296 12.767799 2.829906 -68.520117 27.612937 15.669246 -0.640314 -78.294524 0.011028 -7.051799 4.563867 -0.279475 0.046230 0.058043 -0.000000 0.000000 0.000000 0.000000 0.000000 0.000000 0.000000 1.981960 -2.071835 -0.484208 69.826049 1.489125 6.684434 179.645831 82.617564 -179.997742 0.211074 1.407672 0.004197 -0.018181 -0.410130 0.000000 0.000000 0.000000 0.000000 0.000000 0.000000 0.000000 
1.480978 15.593150 3.479439 0.027085 23.540620 34.120768 -7.902141 -0.202389 1.228696 -14.645704 -7.351496 -76.151182 -1.833382 3.985226 49.590615 0.449396 -0.288222 -7.844271 0.092400 -0.000000 -18.490400 10.081104 -0.449447 -2.656590 17.399469 0.861823 -35.798274 2.351853 -3.355111 57.896271 -0.371701 9.311840 -30.442492 -2.230900 -0.000000 -4.946300 -0.253425 0.105862 7.237251 -0.712980 0.304086 -1.542607 -5.169127 0.322029 -0.426791 8.562735 -8.796638 -7.699352 -1.161992 -0.060922 -0.402038 0.000000 0.000000 0.000000 5.697219 12.701579 2.839976 -68.886017 26.926105 15.012599 -0.655789 -78.025542 0.011083 -6.962540 4.599662 -0.277861 0.044295 0.060048 -0.000000 0.000000 0.000000 0.000000 0.000000 0.000000 0.000000 2.202813 -1.904189 -0.521375 71.019827 1.479293 6.038184 179.680489 83.292703 -179.997466 0.279288 1.591916 0.005891 -0.023957 -0.414286 0.000000 0.000000 0.000000 0.000000 0.000000 0.000000 0.000000 
1.542534 15.560945 3.605416 -0.031194 22.673082 33.656528 -7.920536 -0.280547 1.045799 -14.578447 -6.893833 -76.045150 -1.646748 4.137649 51.694065 0.620865 0.421507 -8.938148 0.067300 0.000000 -17.608400 10.296107 -0.479056 -2.720602 16.917690 0.352301 -35.659862 2.107649 -3.507335 59.439971 -0.137582 9.719726 -28.810490 -2.336500 0.000000 -10.609200 -0.621687 0.084980 7.366584 -0.815995 0.289231 -1.524321 -5.280763 0.312636 -0.458221 8.675389 -8.620754 -7.631300 -1.214172 -0.065814 -0.382513 0.000000 0.000000 0.000000 5.585368 12.613001 2.846703 -69.234520 26.138898 14.319575 -0.674297 -77.700616 0.011090 -6.838451 4.635577 -0.274841 0.041588 0.062479 -0.000000 0.000000 0.000000 0.000000 0.000000 0.000000 0.000000 2.440683 -1.752469 -0.558935 72.241434 1.473505 5.395928 179.719279 84.046361 -179.998079 0.220194 1.823190 0.005391 -0.027356 -0.419112 0.000000 0.000000 0.000000 0.000000 0.000000 0.000000 0.000000 
1.601699 15.531973 3.731013 -0.066289 21.823137 33.230054 -7.931005 -0.336794 0.863349 -14.622070 -6.415942 -75.835504 -1.505071 4.267073 53.520309 0.795898 1.135778 -10.121340 0.012401 -0.000000 -17.540100 10.506212 -0.502754 -2.762512 16.394319 -0.088785 -35.546327 1.850311 -3.644631 60.870176 0.078351 10.058856 -27.048357 -2.373400 -0.000000 -16.961700 -0.993562 0.055411 7.479718 -0.917533 0.265636 -1.507511 -5.386311 0.294418 -0.484959 8.770972 -8.450056 -7.557611 -1.268992 -0.070954 -0.361685 0.000000 0.000000 0.000000 5.461502 12.508572 2.847954 -69.569706 25.252655 13.594321 -0.695720 -77.319420 0.011037 -6.675660 4.672528 -0.270116 0.038081 0.065349 -0.000000 0.000000 0.000000 0.000000 0.000000 0.000000 0.000000 2.688585 -1.624173 -0.596556 73.464041 1.475300 4.789441 179.761601 84.885710 -179.999740 0.011779 2.104664 0.001499 -0.027901 -0.424437 0.000000 0.000000 0.000000 0.000000 0.000000 0.000000 0.000000 
1.659237 15.506226 3.855952 -0.094179 20.994627 32.836758 -7.937652 -0.374761 0.688315 -14.729853 -5.931401 -75.533015 -1.401143 4.373663 55.075122 0.974049 1.847383 -11.373229 -0.075200 0.000000 -18.125300 10.704653 -0.522141 -2.785313 15.857905 -0.463102 -35.452650 1.587031 -3.766351 62.183166 0.270947 10.339854 -25.205357 -2.347700 0.000000 -23.606899 -1.352834 0.018410 7.572778 -1.013432 0.234172 -1.492254 -5.482416 0.268110 -0.504312 8.844127 -8.289453 -7.479933 -1.325026 -0.076221 -0.339822 0.000000 0.000000 0.000000 5.326296 12.394903 2.841888 -69.896329 24.271654 12.840656 -0.719698 -76.885449 0.010911 -6.471155 4.711926 -0.263786 0.033785 0.068671 -0.000000 0.000000 0.000000 0.000000 0.000000 0.000000 0.000000 2.937750 -1.525187 -0.633459 74.660115 1.485780 4.251696 179.806349 85.815244 179.997484 -0.355233 2.437679 -0.007686 -0.025380 -0.430018 0.000000 0.000000 0.000000 0.000000 0.000000 0.000000 0.000000 
1.715791 15.483598 3.979952 -0.127081 20.189369 32.471391 -7.944527 -0.398968 0.525524 -14.859897 -5.450548 -75.150783 -1.326819 4.458927 56.382853 1.153604 2.547277 -12.663499 -0.195800 0.000000 -19.159200 10.886868 -0.538664 -2.792607 15.332111 -0.777132 -35.374262 1.322826 -3.872607 63.381898 0.438212 10.572163 -23.309984 -2.265500 0.000001 -30.403100 -1.686538 -0.024474 7.644291 -1.100329 0.196144 -1.478377 -5.565913 0.234894 -0.514301 8.890917 -8.143149 -7.399863 -1.380678 -0.081480 -0.317192 0.000000 0.000000 0.000000 5.180761 12.277722 2.826963 -70.219196 23.202723 12.063142 -0.745554 -76.407487 0.010702 -6.223774 4.755870 -0.255652 0.028763 0.072444 -0.000000 0.000000 0.000000 0.000000 0.000000 0.000000 0.000000 3.178974 -1.459410 -0.668375 75.803909 1.502741 3.813542 179.852037 86.836565 179.993643 -0.875793 2.820358 -0.023665 -0.019855 -0.435534 0.000000 0.000000 0.000000 0.000000 0.000000 0.000000 0.000000 
1.771882 15.463897 4.102788 -0.175893 19.409034 32.128128 -7.955560 -0.414153 0.378047 -14.977144 -4.979952 -74.705053 -1.273488 4.525625 57.482194 1.331485 3.224605 -13.956559 -0.346600 -0.000000 -20.407300 11.049650 -0.553354 -2.788993 14.837175 -1.039760 -35.308831 1.066504 -3.965164 64.491240 0.577840 10.779502 -21.456073 -2.146301 -0.000000 -36.326300 -1.984701 -0.071698 7.694717 -1.175645 0.152994 -1.465581 -5.634386 0.196112 -0.513830 8.909140 -8.015039 -7.319043 -1.434269 -0.086590 -0.294110 0.000000 0.000000 0.000000 5.028368 12.160046 2.802120 -70.541726 22.055163 11.266626 -0.772385 -75.898160 0.010400 -5.933525 4.805675 -0.245915 0.023106 0.076677 -0.000000 0.000000 0.000000 0.000000 0.000000 0.000000 0.000000 3.403292 -1.429193 -0.699454 76.872900 1.520594 3.501520 179.897009 87.947955 179.988920 -1.529246 3.246203 -0.048239 -0.011683 -0.440588 0.000000 0.000000 0.000000 0.000000 0.000000 0.000000 0.000000 
1.827837 15.446951 4.224259 -0.243949 18.654205 31.804216 -7.973251 -0.423949 0.247190 -15.059193 -4.526503 -74.212129 -1.233167 4.577115 58.416472 1.504128 3.870854 -15.214472 -0.521800 -0.000000 -21.638600 11.193260 -0.566889 -2.778180 14.382948 -1.265226 -35.257690 0.817178 -4.045368 65.520960 0.693033 10.961271 -19.617753 -1.990200 0.000000 -41.610100 -2.243633 -0.122298 7.725686 -1.238334 0.105695 -1.453586 -5.686005 0.152668 -0.502760 8.898729 -7.907974 -7.238704 -1.484292 -0.091425 -0.270831 0.000000 0.000000 0.000000 4.872776 12.042348 2.766857 -70.866081 20.840751 10.456174 -0.799065 -75.374640 0.010001 -5.602971 4.862151 -0.234474 0.016949 0.081383 -0.000000 0.000000 0.000000 0.000000 0.000000 0.000000 0.000000 3.603673 -1.435101 -0.724557 77.848669 1.532339 3.336464 179.939732 89.144300 179.983614 -2.281776 3.703855 -0.081911 -0.001449 -0.444743 0.000000 0.000000 0.000000 0.000000 0.000000 0.000000 0.000000 
